# xmcd CD database file
# Copyright (C) 1996 Ti Kan
#
# Track frame offsets:
#  150
#  14050
#  25412
#  46802
#  61005
#  74037
#  85582
#  95457
#  108405
#  119277
#  129255
#  143770
#  155280
#  167077
#  177810
#  190892
#  202617
#  213217
#  223195
#  233752
#
# Disc length: 3253 seconds
#
# Revision: 1
# Processed by: cddbd v1.4b41PL1 Copyright (c) Steve Scherf et al.
# Submitted via: CDWizzard Release:4.12
#
DISCID=0d0cb314
DTITLE=Various Artist - Big Country Classics Volume Six
DYEAR=1900
DGENRE=
TTITLE0=Don't Take Your Guns To Town
TTITLE1=Oh Lonesome Me
TTITLE2=El Paso
TTITLE3=Always Late With Your Kisses
TTITLE4=Fraulein
TTITLE5=Battle Of New Orleans
TTITLE6=I Wanna Play House With You
TTITLE7=The Three Bells
TTITLE8=He'll Have To Go
TTITLE9=Shotgun Boogie
TTITLE10=Midnight
TTITLE11=Hey Joe
TTITLE12=I Forgot More Than You'll Ever Know
TTITLE13=Gone
TTITLE14=I Don't Hurt Anymore
TTITLE15=Country Girl
TTITLE16=Bye Bye Love
TTITLE17=Ballad Of A Teenage Queen
TTITLE18=All I Have To Do Is Dream
TTITLE19=It's Only Make Believe
EXTD=Country Hits of the '50's 
EXTT0=Johnny Cash
EXTT1=Don Gibson
EXTT2=Marty Robbins
EXTT3=Lefty Frizzell
EXTT4=Bobby Helms
EXTT5=Johnny Horton
EXTT6=Eddy Arnold
EXTT7=The Browns
EXTT8=Jim Reeves
EXTT9=Tennessee Ernie Ford
EXTT10=Red Foley
EXTT11=Carl Smith
EXTT12=The Davis Sisters
EXTT13=Ferlin Huskey
EXTT14=Hank Snow
EXTT15=Faron Young
EXTT16=The Everly Brothers
EXTT17=Johnny Cash
EXTT18=The Everly Brothers
EXTT19=Wanda Jackson
PLAYORDER=
